# Blender v2.79 (sub 0) OBJ File: ''
# www.blender.org
mtllib Eye.mtl
o Eye_Outer.Low__Mask.Test_Sphere.005
v -0.028343 -0.077870 1.057637
v -0.053267 -0.063480 1.057637
v -0.071766 -0.041434 1.057637
v -0.081609 -0.014390 1.057637
v -0.081609 0.014390 1.057637
v -0.071766 0.041434 1.057637
v -0.053267 0.063481 1.057637
v -0.028343 0.077871 1.057637
v 0.000000 0.082868 1.057637
v 0.028343 0.077871 1.057637
v 0.053267 0.063481 1.057637
v 0.071766 0.041434 1.057637
v 0.081609 0.014390 1.057637
v 0.081609 -0.014390 1.057637
v 0.071766 -0.041434 1.057637
v 0.053267 -0.063480 1.057637
v 0.000000 0.000000 1.060899
v -0.000000 0.502505 0.869247
v 0.171867 -0.472200 0.871481
v 0.095605 -0.262672 0.988499
v 0.323004 -0.384941 0.871481
v 0.179678 -0.214132 0.988499
v 0.435182 -0.251252 0.871481
v 0.242080 -0.139765 0.988499
v 0.494871 -0.087259 0.871481
v 0.275283 -0.048540 0.988499
v 0.494871 0.087259 0.871481
v 0.275283 0.048540 0.988499
v 0.435182 0.251253 0.871481
v 0.242080 0.139765 0.988499
v 0.323004 0.384941 0.871481
v 0.179678 0.214132 0.988499
v 0.171867 0.472200 0.871481
v 0.095605 0.262672 0.988499
v 0.028343 -0.077870 1.057637
v 0.000000 0.279530 0.988499
v -0.171867 0.472200 0.871481
v -0.095605 0.262672 0.988499
v -0.323004 0.384941 0.871481
v -0.179678 0.214132 0.988499
v -0.435182 0.251253 0.871481
v -0.242080 0.139765 0.988499
v -0.494871 0.087259 0.871481
v -0.275283 0.048540 0.988499
v -0.494871 -0.087259 0.871481
v -0.275283 -0.048539 0.988499
v -0.435182 -0.251252 0.871481
v -0.242080 -0.139765 0.988499
v -0.323004 -0.384941 0.871481
v -0.179678 -0.214132 0.988499
v -0.171867 -0.472200 0.871481
v -0.095605 -0.262672 0.988499
v -0.000000 -0.502505 0.871481
v -0.000000 -0.279529 0.988499
v -0.000000 -0.082868 1.057637
v -0.000000 -0.181630 1.032859
v -0.178870 0.031540 1.032859
v 0.062121 0.170676 1.032859
v -0.178870 -0.031539 1.032859
v -0.157296 -0.090815 1.032859
v 0.000000 0.181630 1.032859
v -0.062121 0.170676 1.032859
v 0.178871 0.031540 1.032859
v 0.157296 0.090815 1.032859
v 0.116749 0.139137 1.032859
v -0.116749 -0.139136 1.032859
v -0.062121 -0.170676 1.032859
v -0.116749 0.139137 1.032859
v -0.157296 0.090815 1.032859
v 0.062121 -0.170676 1.032859
v 0.116749 -0.139136 1.032859
v 0.157296 -0.090815 1.032859
v 0.178870 -0.031539 1.032859
v 0.122992 -0.337919 0.940445
v 0.231150 -0.275474 0.940445
v 0.311428 -0.179803 0.940445
v 0.354143 -0.062445 0.940445
v 0.354143 0.062445 0.940445
v 0.311428 0.179803 0.940445
v 0.231151 0.275475 0.940445
v 0.122993 0.337920 0.940444
v -0.122993 0.337920 0.940444
v -0.231151 0.275475 0.940445
v -0.311428 0.179804 0.940445
v -0.354143 0.062445 0.940445
v -0.354143 -0.062445 0.940445
v -0.311428 -0.179803 0.940445
v -0.231150 -0.275474 0.940445
v -0.122992 -0.337918 0.940445
v -0.000000 -0.359605 0.940445
v -0.000000 0.359650 0.939625
vt 0.153960 0.788004
vt 0.159767 0.768289
vt 0.190907 0.782844
vt 0.178716 0.799459
vt 0.110950 0.814286
vt 0.129755 0.809868
vt 0.133100 0.837381
vt 0.123644 0.838088
vt 0.089375 0.894439
vt 0.081654 0.877661
vt 0.107085 0.870018
vt 0.111984 0.878248
vt 0.126959 0.785932
vt 0.125484 0.765390
vt 0.215263 0.807145
vt 0.198113 0.818479
vt 0.172406 0.902816
vt 0.156672 0.913743
vt 0.144356 0.888631
vt 0.153049 0.884765
vt 0.229752 0.838331
vt 0.209710 0.843176
vt 0.080426 0.858665
vt 0.085375 0.840954
vt 0.109711 0.851129
vt 0.108216 0.860602
vt 0.138626 0.918261
vt 0.119443 0.916170
vt 0.126275 0.889321
vt 0.135384 0.892053
vt 0.232731 0.872584
vt 0.212296 0.870182
vt 0.223528 0.905248
vt 0.205138 0.896469
vt 0.186585 0.850453
vt 0.188182 0.868903
vt 0.161859 0.867731
vt 0.159982 0.858273
vt 0.204713 0.933589
vt 0.190062 0.919206
vt 0.096623 0.825801
vt 0.116575 0.844545
vt 0.102653 0.908254
vt 0.117204 0.886177
vt 0.176558 0.954066
vt 0.167952 0.935713
vt 0.142889 0.962391
vt 0.141166 0.942136
vt 0.182908 0.887435
vt 0.157650 0.876302
vt 0.113793 0.939682
vt 0.108711 0.959644
vt 0.077569 0.945350
vt 0.089080 0.928264
vt 0.148335 0.811478
vt 0.165661 0.819853
vt 0.150301 0.842939
vt 0.142684 0.837244
vt 0.053204 0.921125
vt 0.069873 0.908912
vt 0.038527 0.890087
vt 0.058337 0.884323
vt 0.178764 0.832954
vt 0.157767 0.849001
vt 0.035396 0.855814
vt 0.056060 0.857182
vt 0.043850 0.822307
vt 0.063240 0.831277
vt 0.063896 0.793897
vt 0.078012 0.808729
vt 0.092254 0.774510
vt 0.100755 0.793460
vt 0.134315 0.864041
vt 0.019531 0.812238
vt 0.044443 0.776090
vt 0.008896 0.854534
vt 0.013191 0.897884
vt 0.032029 0.937091
vt 0.063119 0.967548
vt 0.102669 0.985459
vt 0.145311 0.988312
vt 0.223143 0.952339
vt 0.187104 0.977836
vt 0.248478 0.916443
vt 0.259154 0.874028
vt 0.255012 0.830598
vt 0.236304 0.791208
vt 0.205247 0.760651
vt 0.165574 0.742536
vt 0.122091 0.739176
vt 0.080174 0.750861
vn 0.3017 -0.3596 0.8830
vn 0.3029 -0.3609 0.8820
vn 0.4080 -0.2356 0.8820
vn 0.4065 -0.2347 0.8830
vn -0.0000 -0.3382 0.9411
vn 0.1157 -0.3178 0.9411
vn 0.0521 -0.1431 0.9883
vn -0.0000 -0.1533 0.9882
vn -0.3330 0.0587 0.9411
vn -0.3330 -0.0587 0.9411
vn -0.1510 -0.0266 0.9882
vn -0.1499 0.0264 0.9883
vn 0.1605 -0.4411 0.8830
vn 0.1611 -0.4428 0.8820
vn 0.4640 -0.0818 0.8820
vn 0.4623 -0.0815 0.8830
vn 0.1157 0.3178 0.9411
vn 0.0000 0.3382 0.9411
vn 0.0000 0.1522 0.9883
vn 0.0524 0.1440 0.9882
vn 0.4640 0.0818 0.8820
vn 0.4623 0.0815 0.8830
vn -0.2929 -0.1691 0.9411
vn -0.2174 -0.2591 0.9411
vn -0.0985 -0.1174 0.9882
vn -0.1318 -0.0761 0.9883
vn -0.1157 0.3178 0.9411
vn -0.2174 0.2591 0.9411
vn -0.0979 0.1166 0.9883
vn -0.0524 0.1440 0.9882
vn 0.4080 0.2356 0.8820
vn 0.4065 0.2347 0.8830
vn 0.3029 0.3609 0.8820
vn 0.3017 0.3596 0.8830
vn 0.3330 0.0587 0.9411
vn 0.2929 0.1691 0.9411
vn 0.1327 0.0766 0.9882
vn 0.1499 0.0264 0.9883
vn 0.1584 0.4452 0.8813
vn 0.1599 0.4421 0.8826
vn -0.1157 -0.3178 0.9411
vn -0.0521 -0.1431 0.9883
vn -0.2929 0.1691 0.9411
vn -0.1327 0.0766 0.9882
vn 0.0000 0.4754 0.8798
vn 0.0000 0.4714 0.8819
vn -0.1584 0.4452 0.8813
vn -0.1599 0.4421 0.8826
vn 0.2174 0.2591 0.9411
vn 0.0979 0.1166 0.9883
vn -0.3017 0.3596 0.8830
vn -0.3029 0.3609 0.8820
vn -0.4080 0.2356 0.8820
vn -0.4065 0.2347 0.8830
vn 0.2174 -0.2591 0.9411
vn 0.2929 -0.1691 0.9411
vn 0.1318 -0.0761 0.9883
vn 0.0985 -0.1174 0.9882
vn -0.4640 0.0818 0.8820
vn -0.4623 0.0815 0.8830
vn -0.4640 -0.0818 0.8820
vn -0.4623 -0.0815 0.8830
vn 0.3330 -0.0587 0.9411
vn 0.1510 -0.0266 0.9882
vn -0.4080 -0.2356 0.8820
vn -0.4065 -0.2347 0.8830
vn -0.3029 -0.3609 0.8820
vn -0.3017 -0.3596 0.8830
vn -0.1611 -0.4428 0.8820
vn -0.1605 -0.4411 0.8830
vn -0.0000 -0.4712 0.8820
vn -0.0000 -0.4694 0.8830
vn -0.0000 -0.0000 1.0000
vn -0.2794 -0.3330 0.9006
vn -0.1487 -0.4084 0.9006
vn -0.3764 -0.2173 0.9006
vn -0.4280 -0.0755 0.9006
vn -0.4280 0.0755 0.9006
vn -0.3764 0.2173 0.9006
vn -0.2794 0.3330 0.9006
vn -0.1444 0.4112 0.9000
vn 0.1444 0.4112 0.9000
vn -0.0000 0.4396 0.8982
vn 0.2794 0.3330 0.9006
vn 0.3764 0.2173 0.9006
vn 0.4280 0.0755 0.9006
vn 0.4280 -0.0755 0.9006
vn 0.3764 -0.2173 0.9006
vn 0.2794 -0.3330 0.9006
vn 0.1487 -0.4084 0.9006
vn -0.0000 -0.4346 0.9006
usemtl Cornea
s 1
f 22/1/1 75/2/2 76/3/3 24/4/4
f 56/5/5 70/6/6 35/7/7 55/8/8
f 57/9/9 59/10/10 4/11/11 5/12/12
f 20/13/13 74/14/14 75/2/2 22/1/1
f 24/4/4 76/3/3 77/15/15 26/16/16
f 58/17/17 61/18/18 9/19/19 10/20/20
f 26/16/16 77/15/15 78/21/21 28/22/22
f 60/23/23 66/24/24 2/25/25 3/26/26
f 62/27/27 68/28/28 7/29/29 8/30/30
f 28/22/22 78/21/21 79/31/31 30/32/32
f 30/32/32 79/31/31 80/33/33 32/34/34
f 63/35/35 64/36/36 12/37/37 13/38/38
f 32/34/34 80/33/33 81/39/39 34/40/40
f 67/41/41 56/5/5 55/8/8 1/42/42
f 69/43/43 57/9/9 5/12/12 6/44/44
f 34/40/40 81/39/39 91/45/45 36/46/46
f 36/46/46 91/45/45 82/47/47 38/48/48
f 65/49/49 58/17/17 10/20/20 11/50/50
f 40/51/51 83/52/52 84/53/53 42/54/54
f 71/55/55 72/56/56 15/57/57 16/58/58
f 59/10/10 60/23/23 3/26/26 4/11/11
f 38/48/48 82/47/47 83/52/52 40/51/51
f 42/54/54 84/53/53 85/59/59 44/60/60
f 61/18/18 62/27/27 8/30/30 9/19/19
f 44/60/60 85/59/59 86/61/61 46/62/62
f 73/63/63 63/35/35 13/38/38 14/64/64
f 64/36/36 65/49/49 11/50/50 12/37/37
f 46/62/62 86/61/61 87/65/65 48/66/66
f 48/66/66 87/65/65 88/67/67 50/68/68
f 66/24/24 67/41/41 1/42/42 2/25/25
f 50/68/68 88/67/67 89/69/69 52/70/70
f 68/28/28 69/43/43 6/44/44 7/29/29
f 52/70/70 89/69/69 90/71/71 54/72/72
f 70/6/6 71/55/55 16/58/58 35/7/7
f 72/56/56 73/63/63 14/64/64 15/57/57
f 2/25/25 1/42/42 17/73/73 3/26/26
f 17/73/73 1/42/42 55/8/8 35/7/7
f 36/46/46 38/48/48 62/27/27 61/18/18
f 16/58/58 15/57/57 17/73/73 35/7/7
f 46/62/62 48/66/66 60/23/23 59/10/10
f 14/64/64 13/38/38 17/73/73 15/57/57
f 22/1/1 24/4/4 72/56/56 71/55/55
f 12/37/37 11/50/50 17/73/73 13/38/38
f 32/34/34 34/40/40 58/17/17 65/49/49
f 24/4/4 26/16/16 73/63/63 72/56/56
f 20/13/13 22/1/1 71/55/55 70/6/6
f 8/30/30 7/29/29 17/73/73 9/19/19
f 40/51/51 42/54/54 69/43/43 68/28/28
f 6/44/44 5/12/12 17/73/73 7/29/29
f 50/68/68 52/70/70 67/41/41 66/24/24
f 4/11/11 3/26/26 17/73/73 5/12/12
f 30/32/32 32/34/34 65/49/49 64/36/36
f 26/16/16 28/22/22 63/35/35 73/63/63
f 10/20/20 9/19/19 17/73/73 11/50/50
f 42/54/54 44/60/60 57/9/9 69/43/43
f 52/70/70 54/72/72 56/5/5 67/41/41
f 28/22/22 30/32/32 64/36/36 63/35/35
f 38/48/48 40/51/51 68/28/28 62/27/27
f 48/66/66 50/68/68 66/24/24 60/23/23
f 34/40/40 36/46/46 61/18/18 58/17/17
f 44/60/60 46/62/62 59/10/10 57/9/9
f 54/72/72 20/13/13 70/6/6 56/5/5
f 89/69/69 88/67/67 49/74/74 51/75/75
f 88/67/67 87/65/65 47/76/76 49/74/74
f 87/65/65 86/61/61 45/77/77 47/76/76
f 86/61/61 85/59/59 43/78/78 45/77/77
f 85/59/59 84/53/53 41/79/79 43/78/78
f 84/53/53 83/52/52 39/80/80 41/79/79
f 83/52/52 82/47/47 37/81/81 39/80/80
f 91/45/45 81/39/39 33/82/82 18/83/83
f 82/47/47 91/45/45 18/83/83 37/81/81
f 81/39/39 80/33/33 31/84/84 33/82/82
f 80/33/33 79/31/31 29/85/85 31/84/84
f 79/31/31 78/21/21 27/86/86 29/85/85
f 78/21/21 77/15/15 25/87/87 27/86/86
f 77/15/15 76/3/3 23/88/88 25/87/87
f 76/3/3 75/2/2 21/89/89 23/88/88
f 75/2/2 74/14/14 19/90/90 21/89/89
f 74/14/14 90/71/71 53/91/91 19/90/90
f 54/72/72 90/71/71 74/14/14 20/13/13
f 90/71/71 89/69/69 51/75/75 53/91/91
o Eye_Inner.Low__Mask.Test_Sphere.004
v 0.091826 0.252290 0.840831
v 0.171010 0.469846 0.866025
v 0.241845 0.664463 0.707106
v 0.296198 0.813798 0.499999
v 0.330366 0.907673 0.258818
v 0.342020 0.939692 -0.000001
v 0.330366 0.907673 -0.258820
v 0.296198 0.813797 -0.500000
v 0.241845 0.664463 -0.707107
v 0.171010 0.469846 -0.866026
v 0.088521 0.243210 -0.965926
v -0.000000 -0.000000 -1.000000
v 0.172576 0.205669 0.840832
v 0.321394 0.383022 0.866025
v 0.454519 0.541675 0.707106
v 0.556670 0.663414 0.499999
v 0.620885 0.739942 0.258818
v 0.642787 0.766044 -0.000001
v 0.620885 0.739942 -0.258820
v 0.556670 0.663414 -0.500000
v 0.454519 0.541675 -0.707107
v 0.321394 0.383022 -0.866026
v 0.166366 0.198267 -0.965926
v 0.232511 0.134241 0.840832
v 0.433012 0.250000 0.866025
v 0.612372 0.353553 0.707106
v 0.750000 0.433013 0.499999
v 0.836516 0.482963 0.258819
v 0.866025 0.500000 -0.000000
v 0.836516 0.482963 -0.258819
v 0.750000 0.433013 -0.500000
v 0.612372 0.353553 -0.707107
v 0.433013 0.250000 -0.866026
v 0.224144 0.129409 -0.965926
v 0.264402 0.046622 0.840832
v 0.492404 0.086824 0.866025
v 0.696364 0.122788 0.707106
v 0.852868 0.150384 0.500000
v 0.951251 0.167731 0.258819
v 0.984807 0.173648 -0.000000
v 0.951251 0.167731 -0.258819
v 0.852868 0.150384 -0.500000
v 0.696364 0.122788 -0.707107
v 0.492404 0.086824 -0.866026
v 0.254887 0.044943 -0.965926
v 0.264402 -0.046621 0.840832
v 0.492404 -0.086824 0.866025
v 0.696364 -0.122787 0.707106
v 0.852868 -0.150383 0.500000
v 0.951251 -0.167731 0.258819
v 0.984807 -0.173648 -0.000000
v 0.951251 -0.167731 -0.258819
v 0.852868 -0.150384 -0.500000
v 0.696364 -0.122788 -0.707107
v 0.492404 -0.086824 -0.866026
v 0.254887 -0.044943 -0.965926
v 0.232511 -0.134240 0.840832
v 0.433012 -0.249999 0.866025
v 0.612372 -0.353553 0.707106
v 0.750000 -0.433012 0.500000
v 0.836516 -0.482962 0.258819
v 0.866025 -0.500000 -0.000000
v 0.836516 -0.482963 -0.258819
v 0.750000 -0.433013 -0.500000
v 0.612372 -0.353553 -0.707107
v 0.433013 -0.250000 -0.866026
v 0.224144 -0.129410 -0.965926
v 0.172576 -0.205668 0.840832
v 0.321394 -0.383022 0.866025
v 0.454519 -0.541675 0.707106
v 0.556670 -0.663413 0.500000
v 0.620885 -0.739942 0.258819
v 0.642788 -0.766044 -0.000000
v 0.620885 -0.739942 -0.258819
v 0.556670 -0.663414 -0.500000
v 0.454519 -0.541675 -0.707107
v 0.321394 -0.383022 -0.866026
v 0.166366 -0.198267 -0.965926
v 0.091826 -0.252289 0.840832
v 0.171010 -0.469846 0.866025
v 0.241845 -0.664462 0.707107
v 0.296198 -0.813797 0.500000
v 0.330366 -0.907673 0.258819
v 0.342020 -0.939692 -0.000000
v 0.330366 -0.907673 -0.258819
v 0.296198 -0.813797 -0.500000
v 0.241845 -0.664463 -0.707107
v 0.171010 -0.469846 -0.866026
v 0.088521 -0.243210 -0.965926
v 0.000000 -0.268481 0.840832
v 0.000000 -0.499999 0.866025
v 0.000000 -0.707106 0.707107
v 0.000000 -0.866025 0.500000
v 0.000000 -0.965925 0.258819
v 0.000000 -1.000000 -0.000000
v 0.000000 -0.965925 -0.258819
v 0.000000 -0.866025 -0.500000
v 0.000000 -0.707107 -0.707107
v 0.000000 -0.500000 -0.866026
v 0.000000 -0.258819 -0.965926
v -0.091826 -0.252289 0.840832
v -0.171010 -0.469846 0.866025
v -0.241845 -0.664462 0.707107
v -0.296198 -0.813797 0.500000
v -0.330366 -0.907673 0.258819
v -0.342020 -0.939692 -0.000000
v -0.330366 -0.907673 -0.258819
v -0.296198 -0.813798 -0.500000
v -0.241845 -0.664463 -0.707107
v -0.171010 -0.469846 -0.866026
v -0.088521 -0.243210 -0.965926
v -0.172576 -0.205668 0.840832
v -0.321393 -0.383022 0.866025
v -0.454519 -0.541675 0.707106
v -0.556670 -0.663414 0.500000
v -0.620885 -0.739942 0.258819
v -0.642787 -0.766044 -0.000000
v -0.620885 -0.739942 -0.258819
v -0.556670 -0.663414 -0.500000
v -0.454519 -0.541675 -0.707107
v -0.321394 -0.383022 -0.866026
v -0.166366 -0.198267 -0.965926
v -0.232511 -0.134240 0.840832
v -0.433012 -0.250000 0.866025
v -0.612372 -0.353553 0.707106
v -0.750000 -0.433012 0.500000
v -0.836516 -0.482963 0.258819
v -0.866025 -0.500000 -0.000000
v -0.836516 -0.482963 -0.258819
v -0.750000 -0.433013 -0.500000
v -0.612372 -0.353554 -0.707107
v -0.433012 -0.250000 -0.866026
v -0.224144 -0.129410 -0.965926
v -0.264402 -0.046621 0.840832
v -0.492403 -0.086824 0.866025
v -0.696364 -0.122788 0.707106
v -0.852868 -0.150384 0.500000
v -0.951251 -0.167731 0.258819
v -0.984807 -0.173648 -0.000000
v -0.951251 -0.167731 -0.258819
v -0.852868 -0.150384 -0.500000
v -0.696364 -0.122788 -0.707107
v -0.492404 -0.086824 -0.866026
v -0.254887 -0.044944 -0.965926
v -0.264402 0.046622 0.840831
v -0.492403 0.086824 0.866025
v -0.696364 0.122788 0.707106
v -0.852868 0.150384 0.499999
v -0.951251 0.167731 0.258819
v -0.984808 0.173648 -0.000000
v -0.951251 0.167731 -0.258819
v -0.852868 0.150383 -0.500000
v -0.696364 0.122787 -0.707107
v -0.492404 0.086824 -0.866026
v -0.254887 0.044943 -0.965926
v -0.232511 0.134241 0.840832
v -0.433012 0.250000 0.866025
v -0.612372 0.353553 0.707106
v -0.750000 0.433013 0.499999
v -0.836516 0.482963 0.258819
v -0.866025 0.500000 -0.000000
v -0.836516 0.482963 -0.258819
v -0.750000 0.433012 -0.500000
v -0.612372 0.353553 -0.707107
v -0.433013 0.250000 -0.866026
v -0.224144 0.129409 -0.965926
v -0.172576 0.205669 0.840831
v -0.321394 0.383022 0.866025
v -0.454519 0.541675 0.707106
v -0.556670 0.663414 0.499999
v -0.620885 0.739942 0.258819
v -0.642788 0.766044 -0.000001
v -0.620885 0.739942 -0.258820
v -0.556670 0.663413 -0.500000
v -0.454520 0.541675 -0.707107
v -0.321394 0.383022 -0.866026
v -0.166366 0.198267 -0.965926
v -0.091826 0.252290 0.840831
v -0.171010 0.469846 0.866025
v -0.241845 0.664463 0.707106
v -0.296198 0.813797 0.499999
v -0.330366 0.907673 0.258818
v -0.342020 0.939692 -0.000001
v -0.330366 0.907673 -0.258820
v -0.296198 0.813797 -0.500000
v -0.241845 0.664462 -0.707107
v -0.171010 0.469846 -0.866026
v -0.088521 0.243210 -0.965926
v -0.000000 0.268481 0.840831
v -0.000000 0.500000 0.866025
v -0.000000 0.707106 0.707106
v -0.000000 0.866025 0.499999
v -0.000000 0.965925 0.258818
v -0.000000 1.000000 -0.000001
v -0.000000 0.965925 -0.258820
v -0.000000 0.866025 -0.500000
v -0.000000 0.707106 -0.707107
v -0.000000 0.500000 -0.866026
v -0.000000 0.258819 -0.965926
v 0.044261 0.121605 0.773581
v 0.083183 0.099134 0.773581
v 0.112072 0.064705 0.773581
v -0.000000 0.000000 0.621369
v 0.127443 0.022472 0.773581
v 0.127443 -0.022471 0.773581
v 0.112072 -0.064704 0.773581
v 0.083183 -0.099133 0.773581
v 0.044261 -0.121605 0.773581
v 0.000000 -0.129409 0.773581
v -0.044261 -0.121605 0.773581
v -0.083183 -0.099133 0.773581
v -0.112072 -0.064704 0.773581
v -0.127443 -0.022471 0.773581
v -0.127443 0.022472 0.773581
v -0.112072 0.064705 0.773581
v -0.083183 0.099134 0.773581
v -0.044261 0.121605 0.773581
v -0.000000 0.129410 0.773581
v 0.145599 0.400030 0.902096
v 0.129384 0.355480 0.901773
v 0.273636 0.326107 0.902096
v 0.243163 0.289790 0.901773
v 0.368669 0.212852 0.902096
v 0.327612 0.189147 0.901773
v 0.419235 0.073923 0.902096
v 0.372547 0.065690 0.901773
v 0.419235 -0.073922 0.902096
v 0.372547 -0.065690 0.901773
v 0.368669 -0.212851 0.902096
v 0.327612 -0.189146 0.901773
v 0.273636 -0.326107 0.902096
v 0.243163 -0.289789 0.901773
v 0.145599 -0.400029 0.902096
v 0.129384 -0.355479 0.901773
v 0.000000 -0.425702 0.902096
v 0.000000 -0.378293 0.901773
v -0.145599 -0.400029 0.902096
v -0.129384 -0.355479 0.901773
v -0.273636 -0.326107 0.902096
v -0.243162 -0.289789 0.901773
v -0.368669 -0.212851 0.902096
v -0.327612 -0.189147 0.901773
v -0.419235 -0.073922 0.902096
v -0.372547 -0.065690 0.901773
v -0.419235 0.073923 0.902096
v -0.372547 0.065690 0.901773
v -0.368669 0.212851 0.902096
v -0.327612 0.189147 0.901773
v -0.273636 0.326107 0.902096
v -0.243163 0.289790 0.901773
v -0.145599 0.400030 0.902096
v -0.129384 0.355480 0.901773
v -0.000000 0.378294 0.901773
v -0.000000 0.425703 0.902096
v 0.052829 0.145146 0.798274
v 0.152114 -0.026821 0.798274
v -0.133767 0.077231 0.798274
v -0.152114 0.026822 0.798274
v -0.099286 0.118324 0.798274
v 0.152114 0.026822 0.798274
v 0.000000 -0.154461 0.798274
v -0.152114 -0.026822 0.798274
v 0.052829 -0.145145 0.798274
v -0.000000 0.154461 0.798274
v -0.052829 0.145146 0.798274
v 0.099286 -0.118324 0.798274
v 0.133767 -0.077230 0.798274
v -0.052829 -0.145145 0.798274
v 0.133767 0.077231 0.798274
v 0.099286 0.118324 0.798274
v -0.133767 -0.077230 0.798274
v -0.099286 -0.118324 0.798274
vt 0.540563 0.803941
vt 0.541881 0.772261
vt 0.650117 0.754116
vt 0.659726 0.784364
vt 0.543814 0.699132
vt 0.544725 0.651808
vt 0.611593 0.639847
vt 0.626936 0.684704
vt 0.535029 0.903360
vt 0.537080 0.880145
vt 0.682550 0.857181
vt 0.688573 0.879703
vt 0.571374 0.488468
vt 0.559191 0.496085
vt 0.554847 0.485386
vt 0.563266 0.479233
vt 0.539313 0.830608
vt 0.667655 0.809864
vt 0.542913 0.737131
vt 0.639079 0.720722
vt 0.997399 0.002172
vt 0.997399 0.002172
vt 0.997399 0.002172
vt 0.637959 0.565764
vt 0.618041 0.542207
vt 0.642833 0.511968
vt 0.669605 0.527258
vt 0.538544 0.857376
vt 0.676122 0.835284
vt 0.545885 0.600398
vt 0.594890 0.590766
vt 0.997399 0.002172
vt 0.584113 0.561766
vt 0.781097 0.746526
vt 0.797718 0.767535
vt 0.723752 0.672522
vt 0.745548 0.700115
vt 0.670251 0.605978
vt 0.811272 0.785898
vt 0.764929 0.725260
vt 0.700009 0.642859
vt 0.824645 0.805009
vt 0.544485 0.498136
vt 0.544571 0.485088
vt 0.713825 0.554079
vt 0.754387 0.578545
vt 0.907878 0.674906
vt 0.926980 0.688270
vt 0.586215 0.449223
vt 0.585912 0.464170
vt 0.572899 0.461716
vt 0.574883 0.451678
vt 0.843598 0.633775
vt 0.866052 0.648242
vt 0.786866 0.598312
vt 0.997399 0.002172
vt 0.655984 0.475130
vt 0.686419 0.480320
vt 0.888864 0.662283
vt 0.816788 0.616779
vt 0.737003 0.490359
vt 0.938510 0.532191
vt 0.960699 0.537549
vt 0.855194 0.514097
vt 0.886207 0.520914
vt 0.783504 0.499480
vt 0.983224 0.543542
vt 0.503714 0.463302
vt 0.503637 0.449080
vt 0.515193 0.450538
vt 0.516615 0.460926
vt 0.912261 0.526776
vt 0.820763 0.506959
vt 0.997399 0.002172
vt 0.655579 0.435978
vt 0.685941 0.430466
vt 0.783818 0.415265
vt 0.821403 0.409542
vt 0.997399 0.002172
vt 0.641961 0.399266
vt 0.668625 0.383713
vt 0.914148 0.396886
vt 0.940665 0.392990
vt 0.856198 0.404481
vt 0.737008 0.422601
vt 0.963352 0.390412
vt 0.887654 0.400272
vt 0.986573 0.388333
vt 0.530998 0.417016
vt 0.544992 0.414459
vt 0.545587 0.426062
vt 0.535606 0.429290
vt 0.713852 0.358900
vt 0.755337 0.336013
vt 0.915529 0.251250
vt 0.936636 0.241336
vt 0.581319 0.435823
vt 0.570105 0.442379
vt 0.847778 0.286388
vt 0.871507 0.274126
vt 0.788688 0.317770
vt 0.997399 0.002172
vt 0.616517 0.369490
vt 0.636240 0.345760
vt 0.895088 0.261409
vt 0.819650 0.301103
vt 0.726577 0.242723
vt 0.749978 0.216483
vt 0.670316 0.306943
vt 0.807295 0.153375
vt 0.823002 0.136810
vt 0.771356 0.193019
vt 0.701469 0.271269
vt 0.839445 0.120292
vt 0.517802 0.488165
vt 0.508591 0.477343
vt 0.518386 0.471046
vt 0.526166 0.478077
vt 0.789479 0.173406
vt 0.997399 0.002172
vt 0.582467 0.350109
vt 0.592886 0.321047
vt 0.628669 0.228813
vt 0.642502 0.193410
vt 0.997399 0.002172
vt 0.543813 0.343685
vt 0.543671 0.312827
vt 0.677987 0.106799
vt 0.687902 0.081902
vt 0.655546 0.160755
vt 0.611583 0.272993
vt 0.696972 0.060954
vt 0.667652 0.131420
vt 0.706707 0.039779
vt 0.547703 0.140673
vt 0.549062 0.108972
vt 0.544809 0.261183
vt 0.545745 0.213823
vt 0.552510 0.032744
vt 0.554449 0.009520
vt 0.530535 0.495772
vt 0.534055 0.484688
vt 0.550314 0.082295
vt 0.546656 0.175816
vt 0.997399 0.002172
vt 0.505290 0.350750
vt 0.494586 0.321782
vt 0.551090 0.055523
vt 0.450588 0.192096
vt 0.439562 0.158713
vt 0.478039 0.272937
vt 0.413545 0.077546
vt 0.407093 0.055663
vt 0.429946 0.128463
vt 0.462748 0.228106
vt 0.401009 0.033161
vt 0.581382 0.477950
vt 0.570806 0.471990
vt 0.422009 0.102963
vt 0.997399 0.002172
vt 0.471572 0.370677
vt 0.451625 0.347114
vt 0.324713 0.187505
vt 0.308529 0.166252
vt 0.389588 0.269939
vt 0.365880 0.240224
vt 0.997399 0.002172
vt 0.446602 0.400850
vt 0.419791 0.385528
vt 0.291888 0.145269
vt 0.344089 0.212641
vt 0.419308 0.306817
vt 0.278333 0.126908
vt 0.264920 0.107846
vt 0.559582 0.417242
vt 0.555243 0.429578
vt 0.272812 0.295976
vt 0.246009 0.278989
vt 0.375693 0.358765
vt 0.335151 0.334267
vt 0.181716 0.237891
vt 0.162569 0.224585
vt 0.508937 0.435197
vt 0.520359 0.441655
vt 0.223538 0.264560
vt 0.302696 0.314485
vt 0.997399 0.002172
vt 0.433566 0.437785
vt 0.403151 0.432547
vt 0.200716 0.250533
vt 0.177283 0.386012
vt 0.151046 0.380612
vt 0.268737 0.405832
vt 0.234319 0.398710
vt 0.352484 0.422465
vt 0.128854 0.375272
vt 0.203321 0.391884
vt 0.306006 0.413327
vt 0.106322 0.369273
vt 0.571956 0.424264
vt 0.564964 0.433500
vt 0.997399 0.002172
vt 0.433831 0.476957
vt 0.403445 0.482453
vt 0.201835 0.512555
vt 0.175342 0.515955
vt 0.305668 0.497596
vt 0.268088 0.503303
vt 0.997399 0.002172
vt 0.447575 0.513642
vt 0.420913 0.529184
vt 0.148844 0.519837
vt 0.233304 0.508374
vt 0.352475 0.490310
vt 0.126165 0.522401
vt 0.102951 0.524494
vt 0.194401 0.651437
vt 0.173966 0.661589
vt 0.269830 0.611783
vt 0.241704 0.626459
vt 0.375623 0.554044
vt 0.334149 0.576903
vt 0.152869 0.671494
vt 0.217968 0.638687
vt 0.300790 0.595120
vt 0.997399 0.002172
vt 0.472942 0.543493
vt 0.453194 0.567236
vt 0.507017 0.562822
vt 0.496586 0.591862
vt 0.300013 0.739513
vt 0.282212 0.759522
vt 0.362905 0.670219
vt 0.339521 0.696457
vt 0.419200 0.606028
vt 0.266501 0.776060
vt 0.318113 0.719881
vt 0.388026 0.641692
vt 0.250063 0.792568
vt 0.518025 0.424252
vt 0.525941 0.432780
vt 0.997399 0.002172
vt 0.392599 0.851949
vt 0.382784 0.873086
vt 0.421889 0.781525
vt 0.411599 0.806150
vt 0.460834 0.684176
vt 0.446971 0.719560
vt 0.997399 0.002172
vt 0.545738 0.569622
vt 0.401707 0.831036
vt 0.433955 0.752191
vt 0.477873 0.639982
vt 0.511928 0.548479
vt 0.522064 0.521801
vt 0.545454 0.525633
vt 0.545310 0.554586
vt 0.482463 0.531677
vt 0.500719 0.510326
vt 0.460513 0.505787
vt 0.485405 0.491939
vt 0.448709 0.474016
vt 0.476423 0.469378
vt 0.448523 0.440076
vt 0.476492 0.445425
vt 0.459885 0.408161
vt 0.484101 0.422364
vt 0.481554 0.382040
vt 0.499556 0.404066
vt 0.510777 0.364884
vt 0.520200 0.391285
vt 0.544153 0.358804
vt 0.543797 0.387189
vt 0.577568 0.364448
vt 0.567815 0.390675
vt 0.607041 0.381270
vt 0.588526 0.402717
vt 0.628987 0.407101
vt 0.604661 0.420878
vt 0.640744 0.438928
vt 0.612785 0.443462
vt 0.640995 0.472793
vt 0.613538 0.467796
vt 0.629574 0.504717
vt 0.605416 0.490347
vt 0.608083 0.530777
vt 0.589896 0.509292
vt 0.569286 0.521749
vt 0.578635 0.547567
vt 0.545014 0.456479
vn -0.0000 0.9669 -0.2553
vn -0.0000 1.0000 -0.0000
vn 0.3420 0.9397 -0.0000
vn 0.3307 0.9086 -0.2553
vn -0.0000 0.8696 0.4938
vn -0.0000 0.7142 0.6999
vn 0.2443 0.6711 0.6999
vn 0.2974 0.8171 0.4938
vn -0.0000 0.2722 -0.9622
vn -0.0000 0.5107 -0.8598
vn 0.1747 0.4799 -0.8598
vn 0.0931 0.2558 -0.9622
vn -0.3348 -0.3990 0.8537
vn -0.1781 -0.4894 0.8537
vn -0.2496 -0.6858 0.6836
vn -0.4630 -0.5518 0.6937
vn -0.0000 0.8696 -0.4938
vn 0.2974 0.8171 -0.4938
vn -0.0000 0.9669 0.2553
vn 0.3307 0.9086 0.2553
vn 0.0000 -0.0000 -1.0000
vn 0.3429 0.4087 0.8458
vn 0.1572 0.1873 0.9696
vn 0.2117 0.1223 0.9696
vn 0.4620 0.2667 0.8458
vn -0.0000 0.7142 -0.6999
vn 0.2443 0.6711 -0.6999
vn -0.0000 0.5335 0.8458
vn 0.1825 0.5013 0.8458
vn 0.1750 0.2086 -0.9622
vn 0.0836 0.2298 0.9696
vn 0.5589 0.6661 -0.4938
vn 0.4591 0.5471 -0.6999
vn 0.6215 0.7407 0.2553
vn 0.6428 0.7660 -0.0000
vn 0.4591 0.5471 0.6999
vn 0.3283 0.3912 -0.8598
vn 0.6215 0.7407 -0.2553
vn 0.5589 0.6661 0.4938
vn 0.0000 -0.5208 0.8537
vn 0.0000 -0.7203 0.6937
vn 0.6185 0.3571 0.6999
vn 0.7531 0.4348 0.4938
vn 0.4423 0.2554 -0.8598
vn 0.2358 0.1361 -0.9622
vn -0.5129 0.0904 0.8537
vn -0.5129 -0.0904 0.8537
vn -0.7094 -0.1251 0.6937
vn -0.7188 0.1267 0.6836
vn 0.8373 0.4834 -0.2553
vn 0.7531 0.4348 -0.4938
vn 0.8373 0.4834 0.2553
vn 0.2408 0.0425 0.9696
vn 0.5254 0.0926 0.8458
vn 0.6185 0.3571 -0.6999
vn 0.8660 0.5000 0.0000
vn 0.7033 0.1240 0.6999
vn 0.7033 0.1240 -0.6999
vn 0.5030 0.0887 -0.8598
vn 0.9848 0.1736 0.0000
vn 0.9522 0.1679 -0.2553
vn 0.8563 0.1510 0.4938
vn 0.2681 0.0473 -0.9622
vn 0.5129 -0.0904 0.8537
vn 0.5129 0.0904 0.8537
vn 0.7188 0.1267 0.6836
vn 0.7094 -0.1251 0.6937
vn 0.8563 0.1510 -0.4938
vn 0.9522 0.1679 0.2553
vn 0.2408 -0.0425 0.9696
vn 0.5254 -0.0926 0.8458
vn 0.8563 -0.1510 0.4938
vn 0.9522 -0.1679 0.2553
vn 0.2681 -0.0473 -0.9622
vn 0.2117 -0.1223 0.9696
vn 0.4620 -0.2667 0.8458
vn 0.8563 -0.1510 -0.4938
vn 0.7033 -0.1240 -0.6999
vn 0.9848 -0.1736 0.0000
vn 0.7033 -0.1240 0.6999
vn 0.5030 -0.0887 -0.8598
vn 0.9522 -0.1679 -0.2553
vn 0.1781 0.4894 0.8537
vn -0.0000 0.5208 0.8537
vn -0.0000 0.7298 0.6836
vn 0.2464 0.6769 0.6937
vn 0.6185 -0.3571 0.6999
vn 0.7531 -0.4348 0.4938
vn 0.4423 -0.2554 -0.8598
vn 0.2358 -0.1361 -0.9622
vn -0.4510 0.2604 0.8537
vn -0.6238 0.3601 0.6937
vn 0.8373 -0.4834 -0.2553
vn 0.7531 -0.4348 -0.4938
vn 0.8373 -0.4834 0.2553
vn 0.1572 -0.1873 0.9696
vn 0.3429 -0.4087 0.8458
vn 0.6185 -0.3571 -0.6999
vn 0.8660 -0.5000 0.0000
vn 0.6215 -0.7407 0.2553
vn 0.6428 -0.7660 0.0000
vn 0.4591 -0.5471 0.6999
vn 0.4591 -0.5471 -0.6999
vn 0.3283 -0.3912 -0.8598
vn 0.6215 -0.7407 -0.2553
vn 0.5589 -0.6661 0.4938
vn 0.1750 -0.2086 -0.9622
vn 0.3348 -0.3990 0.8537
vn 0.4510 -0.2604 0.8537
vn 0.6321 -0.3649 0.6836
vn 0.4630 -0.5518 0.6937
vn 0.5589 -0.6661 -0.4938
vn 0.0836 -0.2298 0.9696
vn 0.1825 -0.5013 0.8458
vn 0.2974 -0.8171 0.4938
vn 0.3307 -0.9086 0.2553
vn 0.0931 -0.2558 -0.9622
vn -0.0000 -0.2445 0.9696
vn -0.0000 -0.5335 0.8458
vn 0.2974 -0.8171 -0.4938
vn 0.2443 -0.6711 -0.6999
vn 0.3420 -0.9397 0.0000
vn 0.2443 -0.6711 0.6999
vn 0.1747 -0.4799 -0.8598
vn 0.3307 -0.9086 -0.2553
vn 0.0000 -1.0000 0.0000
vn 0.0000 -0.9669 -0.2553
vn 0.0000 -0.7142 0.6999
vn 0.0000 -0.8696 0.4938
vn 0.0000 -0.5107 -0.8598
vn 0.0000 -0.2722 -0.9622
vn 0.1781 -0.4894 0.8537
vn 0.2496 -0.6858 0.6836
vn 0.0000 -0.8696 -0.4938
vn 0.0000 -0.9669 0.2553
vn -0.0836 -0.2298 0.9696
vn -0.1825 -0.5013 0.8458
vn 0.0000 -0.7142 -0.6999
vn -0.3307 -0.9086 0.2553
vn -0.3420 -0.9397 0.0000
vn -0.2443 -0.6711 0.6999
vn -0.2443 -0.6711 -0.6999
vn -0.1747 -0.4799 -0.8598
vn -0.3307 -0.9086 -0.2553
vn -0.2974 -0.8171 0.4938
vn -0.0931 -0.2558 -0.9622
vn -0.4510 -0.2604 0.8537
vn -0.6321 -0.3649 0.6836
vn -0.2974 -0.8171 -0.4938
vn -0.1572 -0.1873 0.9696
vn -0.3429 -0.4087 0.8458
vn -0.6215 -0.7407 -0.2553
vn -0.5589 -0.6661 -0.4938
vn -0.5589 -0.6661 0.4938
vn -0.6215 -0.7407 0.2553
vn -0.1750 -0.2086 -0.9622
vn -0.2117 -0.1223 0.9696
vn -0.4620 -0.2667 0.8458
vn -0.4591 -0.5471 -0.6999
vn -0.6428 -0.7660 0.0000
vn -0.4591 -0.5471 0.6999
vn -0.3283 -0.3912 -0.8598
vn -0.1781 0.4894 0.8537
vn -0.2464 0.6769 0.6937
vn -0.8660 -0.5000 0.0000
vn -0.8373 -0.4834 -0.2553
vn -0.6185 -0.3571 0.6999
vn -0.7531 -0.4348 0.4938
vn -0.4423 -0.2554 -0.8598
vn -0.2358 -0.1361 -0.9622
vn 0.4510 0.2604 0.8537
vn 0.6238 0.3602 0.6937
vn -0.7531 -0.4348 -0.4938
vn -0.8373 -0.4834 0.2553
vn -0.2408 -0.0425 0.9696
vn -0.5254 -0.0926 0.8458
vn -0.6185 -0.3571 -0.6999
vn -0.8563 -0.1510 -0.4938
vn -0.7033 -0.1240 -0.6999
vn -0.9522 -0.1679 0.2553
vn -0.9848 -0.1736 0.0000
vn -0.7033 -0.1240 0.6999
vn -0.5030 -0.0887 -0.8598
vn -0.9522 -0.1679 -0.2553
vn -0.8563 -0.1510 0.4938
vn -0.2681 -0.0473 -0.9622
vn -0.3348 0.3990 0.8537
vn -0.4691 0.5591 0.6836
vn -0.2408 0.0425 0.9696
vn -0.5254 0.0926 0.8458
vn -0.9522 0.1679 -0.2553
vn -0.8563 0.1510 -0.4938
vn -0.8563 0.1510 0.4938
vn -0.9522 0.1679 0.2553
vn -0.2681 0.0473 -0.9622
vn -0.2117 0.1223 0.9696
vn -0.4620 0.2667 0.8458
vn -0.7033 0.1240 -0.6999
vn -0.9848 0.1736 0.0000
vn -0.7033 0.1240 0.6999
vn -0.5029 0.0887 -0.8598
vn -0.6185 0.3571 -0.6999
vn -0.4423 0.2554 -0.8598
vn -0.8660 0.5000 0.0000
vn -0.8373 0.4834 -0.2553
vn -0.6185 0.3571 0.6999
vn -0.7531 0.4348 0.4938
vn -0.2358 0.1361 -0.9622
vn -0.7531 0.4348 -0.4938
vn -0.8373 0.4834 0.2553
vn -0.1572 0.1873 0.9696
vn -0.3429 0.4087 0.8458
vn -0.0836 0.2298 0.9696
vn -0.1825 0.5013 0.8458
vn -0.5589 0.6661 -0.4938
vn -0.4591 0.5471 -0.6999
vn -0.6215 0.7407 0.2553
vn -0.6428 0.7660 0.0000
vn -0.4591 0.5471 0.6999
vn -0.3283 0.3912 -0.8598
vn -0.6215 0.7407 -0.2553
vn -0.5589 0.6661 0.4938
vn -0.1750 0.2086 -0.9622
vn 0.3348 0.3990 0.8537
vn 0.4691 0.5591 0.6836
vn -0.1747 0.4799 -0.8598
vn -0.0931 0.2558 -0.9622
vn -0.3307 0.9086 -0.2553
vn -0.2974 0.8171 -0.4938
vn -0.2974 0.8171 0.4938
vn -0.3307 0.9086 0.2553
vn -0.0000 0.2445 0.9696
vn -0.2443 0.6711 -0.6999
vn -0.3420 0.9397 0.0000
vn -0.2443 0.6711 0.6999
vn 0.0779 -0.2141 0.9737
vn 0.1455 -0.3998 0.9050
vn 0.0000 -0.4254 0.9050
vn 0.0000 -0.2279 0.9737
vn 0.1465 -0.1746 0.9737
vn 0.2735 -0.3259 0.9050
vn 0.1973 -0.1139 0.9737
vn 0.3684 -0.2127 0.9050
vn 0.2244 -0.0396 0.9737
vn 0.4190 -0.0739 0.9050
vn 0.2244 0.0396 0.9737
vn 0.4190 0.0739 0.9050
vn 0.1973 0.1139 0.9737
vn 0.3684 0.2127 0.9050
vn 0.1465 0.1746 0.9737
vn 0.2735 0.3259 0.9050
vn 0.0779 0.2141 0.9737
vn 0.1455 0.3998 0.9050
vn -0.0000 0.2279 0.9737
vn -0.0000 0.4254 0.9050
vn -0.0779 0.2141 0.9737
vn -0.1455 0.3998 0.9050
vn -0.1465 0.1746 0.9737
vn -0.2735 0.3259 0.9050
vn -0.1973 0.1139 0.9737
vn -0.3684 0.2127 0.9050
vn -0.2244 0.0396 0.9737
vn -0.4190 0.0739 0.9050
vn -0.2244 -0.0396 0.9737
vn -0.4190 -0.0739 0.9050
vn -0.1973 -0.1139 0.9737
vn -0.3684 -0.2127 0.9050
vn -0.1465 -0.1746 0.9737
vn -0.2735 -0.3259 0.9050
vn -0.1455 -0.3998 0.9050
vn -0.0779 -0.2141 0.9737
vn 0.0000 0.0000 1.0000
usemtl Eye
s 1
f 286/92/92 285/93/93 97/94/94 98/95/95
f 283/96/96 282/97/97 94/98/98 95/99/99
f 290/100/100 289/101/101 101/102/102 102/103/103
f 361/104/104 346/105/105 291/106/106 292/107/107
f 287/108/108 286/92/92 98/95/95 99/109/109
f 284/110/110 283/96/96 95/99/99 96/111/111
f 103/112/112 290/113/100 102/114/103
f 105/115/113 312/116/114 314/117/115 116/118/116
f 288/119/117 287/108/108 99/109/109 100/120/118
f 285/93/93 284/110/110 96/111/111 97/94/94
f 282/97/97 281/121/119 93/122/120 94/98/98
f 289/101/101 288/119/117 100/120/118 101/102/102
f 103/112/112 102/114/103 114/123/121
f 93/122/120 310/124/122 312/116/114 105/115/113
f 100/120/118 99/109/109 111/125/123 112/126/124
f 97/94/94 96/111/111 108/127/125 109/128/126
f 94/98/98 93/122/120 105/115/113 106/129/127
f 101/102/102 100/120/118 112/126/124 113/130/128
f 98/95/95 97/94/94 109/128/126 110/131/129
f 95/99/99 94/98/98 106/129/127 107/132/130
f 102/103/103 101/102/102 113/130/128 114/133/121
f 346/105/105 355/134/131 309/135/132 291/106/106
f 99/109/109 98/95/95 110/131/129 111/125/123
f 96/111/111 95/99/99 107/132/130 108/127/125
f 107/132/130 106/129/127 117/136/133 118/137/134
f 114/133/121 113/130/128 124/138/135 125/139/136
f 347/140/137 351/141/138 295/142/139 296/143/140
f 111/125/123 110/131/129 121/144/141 122/145/142
f 108/127/125 107/132/130 118/137/134 119/146/143
f 103/112/112 114/123/121 125/147/136
f 116/118/116 314/117/115 316/148/144 127/149/145
f 112/126/124 111/125/123 122/145/142 123/150/146
f 109/128/126 108/127/125 119/146/143 120/151/147
f 106/129/127 105/115/113 116/118/116 117/136/133
f 113/130/128 112/126/124 123/150/146 124/138/135
f 110/131/129 109/128/126 120/151/147 121/144/141
f 117/136/133 116/118/116 127/149/145 128/152/148
f 124/138/135 123/150/146 134/153/149 135/154/150
f 121/144/141 120/151/147 131/155/151 132/156/152
f 118/137/134 117/136/133 128/152/148 129/157/153
f 125/139/136 124/138/135 135/154/150 136/158/154
f 349/159/155 353/160/156 304/161/157 305/162/158
f 122/145/142 121/144/141 132/156/152 133/163/159
f 119/146/143 118/137/134 129/157/153 130/164/160
f 103/112/112 125/147/136 136/165/154
f 127/149/145 316/148/144 318/166/161 138/167/162
f 123/150/146 122/145/142 133/163/159 134/153/149
f 120/151/147 119/146/143 130/164/160 131/155/151
f 130/164/160 129/157/153 140/168/163 141/169/164
f 103/112/112 136/165/154 147/170/165
f 138/167/162 318/166/161 320/171/166 149/172/167
f 134/153/149 133/163/159 144/173/168 145/174/169
f 131/155/151 130/164/160 141/169/164 142/175/170
f 128/152/148 127/149/145 138/167/162 139/176/171
f 135/154/150 134/153/149 145/174/169 146/177/172
f 132/156/152 131/155/151 142/175/170 143/178/173
f 129/157/153 128/152/148 139/176/171 140/168/163
f 136/158/154 135/154/150 146/177/172 147/179/165
f 359/180/174 352/181/175 300/182/176 301/183/177
f 133/163/159 132/156/152 143/178/173 144/173/168
f 140/168/163 139/176/171 150/184/178 151/185/179
f 147/179/165 146/177/172 157/186/180 158/187/181
f 358/188/182 347/140/137 296/143/140 297/189/183
f 144/173/168 143/178/173 154/190/184 155/191/185
f 141/169/164 140/168/163 151/185/179 152/192/186
f 103/112/112 147/170/165 158/193/181
f 149/172/167 320/171/166 322/194/187 160/195/188
f 145/174/169 144/173/168 155/191/185 156/196/189
f 142/175/170 141/169/164 152/192/186 153/197/190
f 139/176/171 138/167/162 149/172/167 150/184/178
f 146/177/172 145/174/169 156/196/189 157/186/180
f 143/178/173 142/175/170 153/197/190 154/190/184
f 153/197/190 152/192/186 163/198/191 164/199/192
f 150/184/178 149/172/167 160/195/188 161/200/193
f 157/186/180 156/196/189 167/201/194 168/202/195
f 154/190/184 153/197/190 164/199/192 165/203/196
f 151/185/179 150/184/178 161/200/193 162/204/197
f 158/187/181 157/186/180 168/202/195 169/205/198
f 350/206/199 348/207/200 306/208/201 307/209/202
f 155/191/185 154/190/184 165/203/196 166/210/203
f 152/192/186 151/185/179 162/204/197 163/198/191
f 103/112/112 158/193/181 169/211/198
f 160/195/188 322/194/187 324/212/204 171/213/205
f 156/196/189 155/191/185 166/210/203 167/201/194
f 163/198/191 162/204/197 173/214/206 174/215/207
f 103/112/112 169/211/198 180/216/208
f 171/213/205 324/212/204 326/217/209 182/218/210
f 167/201/194 166/210/203 177/219/211 178/220/212
f 164/199/192 163/198/191 174/215/207 175/221/213
f 161/200/193 160/195/188 171/213/205 172/222/214
f 168/202/195 167/201/194 178/220/212 179/223/215
f 165/203/196 164/199/192 175/221/213 176/224/216
f 162/204/197 161/200/193 172/222/214 173/214/206
f 169/205/198 168/202/195 179/223/215 180/225/208
f 348/207/200 349/159/155 305/162/158 306/208/201
f 166/210/203 165/203/196 176/224/216 177/219/211
f 176/224/216 175/221/213 186/226/217 187/227/218
f 173/214/206 172/222/214 183/228/219 184/229/220
f 180/225/208 179/223/215 190/230/221 191/231/222
f 356/232/223 350/206/199 307/209/202 308/233/224
f 177/219/211 176/224/216 187/227/218 188/234/225
f 174/215/207 173/214/206 184/229/220 185/235/226
f 103/112/112 180/216/208 191/236/222
f 182/218/210 326/217/209 328/237/227 193/238/228
f 178/220/212 177/219/211 188/234/225 189/239/229
f 175/221/213 174/215/207 185/235/226 186/226/217
f 172/222/214 171/213/205 182/218/210 183/228/219
f 179/223/215 178/220/212 189/239/229 190/230/221
f 186/226/217 185/235/226 196/240/230 197/241/231
f 183/228/219 182/218/210 193/238/228 194/242/232
f 190/230/221 189/239/229 200/243/233 201/244/234
f 187/227/218 186/226/217 197/241/231 198/245/235
f 184/229/220 183/228/219 194/242/232 195/246/236
f 191/231/222 190/230/221 201/244/234 202/247/237
f 351/141/138 360/248/238 293/249/239 295/142/139
f 188/234/225 187/227/218 198/245/235 199/250/240
f 185/235/226 184/229/220 195/246/236 196/240/230
f 103/112/112 191/236/222 202/251/237
f 193/238/228 328/237/227 330/252/241 204/253/242
f 189/239/229 188/234/225 199/250/240 200/243/233
f 199/250/240 198/245/235 209/254/243 210/255/244
f 196/240/230 195/246/236 206/256/245 207/257/246
f 103/112/112 202/251/237 213/258/247
f 204/253/242 330/252/241 332/259/248 215/260/249
f 200/243/233 199/250/240 210/255/244 211/261/250
f 197/241/231 196/240/230 207/257/246 208/262/251
f 194/242/232 193/238/228 204/253/242 205/263/252
f 201/244/234 200/243/233 211/261/250 212/264/253
f 198/245/235 197/241/231 208/262/251 209/254/243
f 195/246/236 194/242/232 205/263/252 206/256/245
f 202/247/237 201/244/234 212/264/253 213/265/247
f 352/181/175 354/266/254 299/267/255 300/182/176
f 209/254/243 208/262/251 219/268/256 220/269/257
f 206/256/245 205/263/252 216/270/258 217/271/259
f 213/265/247 212/264/253 223/272/260 224/273/261
f 353/160/156 362/274/262 303/275/263 304/161/157
f 210/255/244 209/254/243 220/269/257 221/276/264
f 207/257/246 206/256/245 217/271/259 218/277/265
f 103/112/112 213/258/247 224/278/261
f 215/260/249 332/259/248 334/279/266 226/280/267
f 211/261/250 210/255/244 221/276/264 222/281/268
f 208/262/251 207/257/246 218/277/265 219/268/256
f 205/263/252 204/253/242 215/260/249 216/270/258
f 212/264/253 211/261/250 222/281/268 223/272/260
f 222/281/268 221/276/264 232/282/269 233/283/270
f 219/268/256 218/277/265 229/284/271 230/285/272
f 216/270/258 215/260/249 226/280/267 227/286/273
f 223/272/260 222/281/268 233/283/270 234/287/274
f 220/269/257 219/268/256 230/285/272 231/288/275
f 217/271/259 216/270/258 227/286/273 228/289/276
f 224/273/261 223/272/260 234/287/274 235/290/277
f 354/266/254 357/291/278 298/292/279 299/267/255
f 221/276/264 220/269/257 231/288/275 232/282/269
f 218/277/265 217/271/259 228/289/276 229/284/271
f 103/112/112 224/278/261 235/293/277
f 226/280/267 334/279/266 336/294/280 237/295/281
f 355/134/131 356/232/223 308/233/224 309/135/132
f 232/282/269 231/288/275 242/296/282 243/297/283
f 229/284/271 228/289/276 239/298/284 240/299/285
f 103/112/112 235/293/277 246/300/286
f 237/295/281 336/294/280 338/301/287 248/302/288
f 233/283/270 232/282/269 243/297/283 244/303/289
f 230/285/272 229/284/271 240/299/285 241/304/290
f 227/286/273 226/280/267 237/295/281 238/305/291
f 234/287/274 233/283/270 244/303/289 245/306/292
f 231/288/275 230/285/272 241/304/290 242/296/282
f 228/289/276 227/286/273 238/305/291 239/298/284
f 235/290/277 234/287/274 245/306/292 246/307/286
f 245/306/292 244/303/289 255/308/293 256/309/294
f 242/296/282 241/304/290 252/310/295 253/311/296
f 239/298/284 238/305/291 249/312/297 250/313/298
f 246/307/286 245/306/292 256/309/294 257/314/299
f 357/291/278 358/188/182 297/189/183 298/292/279
f 243/297/283 242/296/282 253/311/296 254/315/300
f 240/299/285 239/298/284 250/313/298 251/316/301
f 103/112/112 246/300/286 257/317/299
f 248/302/288 338/301/287 340/318/302 259/319/303
f 244/303/289 243/297/283 254/315/300 255/308/293
f 241/304/290 240/299/285 251/316/301 252/310/295
f 238/305/291 237/295/281 248/302/288 249/312/297
f 259/319/303 340/318/302 342/320/304 270/321/305
f 255/308/293 254/315/300 265/322/306 266/323/307
f 252/310/295 251/316/301 262/324/308 263/325/309
f 249/312/297 248/302/288 259/319/303 260/326/310
f 256/309/294 255/308/293 266/323/307 267/327/311
f 253/311/296 252/310/295 263/325/309 264/328/312
f 250/313/298 249/312/297 260/326/310 261/329/313
f 257/314/299 256/309/294 267/327/311 268/330/314
f 363/331/315 359/180/174 301/183/177 302/332/316
f 254/315/300 253/311/296 264/328/312 265/322/306
f 251/316/301 250/313/298 261/329/313 262/324/308
f 103/112/112 257/317/299 268/333/314
f 268/330/314 267/327/311 278/334/317 279/335/318
f 360/248/238 361/104/104 292/107/107 293/249/239
f 265/322/306 264/328/312 275/336/319 276/337/320
f 262/324/308 261/329/313 272/338/321 273/339/322
f 103/112/112 268/333/314 279/340/318
f 270/321/305 342/320/304 345/341/323 281/121/119
f 266/323/307 265/322/306 276/337/320 277/342/324
f 263/325/309 262/324/308 273/339/322 274/343/325
f 260/326/310 259/319/303 270/321/305 271/344/326
f 267/327/311 266/323/307 277/342/324 278/334/317
f 264/328/312 263/325/309 274/343/325 275/336/319
f 261/329/313 260/326/310 271/344/326 272/338/321
f 271/344/326 270/321/305 281/121/119 282/97/97
f 278/334/317 277/342/324 288/119/117 289/101/101
f 275/336/319 274/343/325 285/93/93 286/92/92
f 272/338/321 271/344/326 282/97/97 283/96/96
f 279/335/318 278/334/317 289/101/101 290/100/100
f 362/274/262 363/331/315 302/332/316 303/275/263
f 276/337/320 275/336/319 286/92/92 287/108/108
f 273/339/322 272/338/321 283/96/96 284/110/110
f 103/112/112 279/340/318 290/113/100
f 277/342/324 276/337/320 287/108/108 288/119/117
f 274/343/325 273/339/322 284/110/110 285/93/93
f 343/345/327 269/346/328 280/347/329 344/348/330
f 341/349/331 258/350/332 269/346/328 343/345/327
f 339/351/333 247/352/334 258/350/332 341/349/331
f 337/353/335 236/354/336 247/352/334 339/351/333
f 335/355/337 225/356/338 236/354/336 337/353/335
f 333/357/339 214/358/340 225/356/338 335/355/337
f 331/359/341 203/360/342 214/358/340 333/357/339
f 329/361/343 192/362/344 203/360/342 331/359/341
f 327/363/345 181/364/346 192/362/344 329/361/343
f 325/365/347 170/366/348 181/364/346 327/363/345
f 323/367/349 159/368/350 170/366/348 325/365/347
f 321/369/351 148/370/352 159/368/350 323/367/349
f 319/371/353 137/372/354 148/370/352 321/369/351
f 317/373/355 126/374/356 137/372/354 319/371/353
f 315/375/357 115/376/358 126/374/356 317/373/355
f 313/377/359 104/378/360 115/376/358 315/375/357
f 344/348/330 280/347/329 92/379/361 311/380/362
f 311/380/362 92/379/361 104/378/360 313/377/359
f 294/381/363 295/142/139 293/249/239 292/107/107
f 294/381/363 297/189/183 296/143/140 295/142/139
f 294/381/363 299/267/255 298/292/279 297/189/183
f 294/381/363 301/183/177 300/182/176 299/267/255
f 294/381/363 303/275/263 302/332/316 301/183/177
f 294/381/363 305/162/158 304/161/157 303/275/263
f 294/381/363 307/209/202 306/208/201 305/162/158
f 294/381/363 309/135/132 308/233/224 307/209/202
f 294/381/363 292/107/107 291/106/106 309/135/132
f 343/345/327 344/348/330 345/341/323 342/320/304
f 341/349/331 343/345/327 342/320/304 340/318/302
f 339/351/333 341/349/331 340/318/302 338/301/287
f 337/353/335 339/351/333 338/301/287 336/294/280
f 335/355/337 337/353/335 336/294/280 334/279/266
f 333/357/339 335/355/337 334/279/266 332/259/248
f 331/359/341 333/357/339 332/259/248 330/252/241
f 329/361/343 331/359/341 330/252/241 328/237/227
f 327/363/345 329/361/343 328/237/227 326/217/209
f 325/365/347 327/363/345 326/217/209 324/212/204
f 323/367/349 325/365/347 324/212/204 322/194/187
f 321/369/351 323/367/349 322/194/187 320/171/166
f 319/371/353 321/369/351 320/171/166 318/166/161
f 317/373/355 319/371/353 318/166/161 316/148/144
f 315/375/357 317/373/355 316/148/144 314/117/115
f 313/377/359 315/375/357 314/117/115 312/116/114
f 311/380/362 313/377/359 312/116/114 310/124/122
f 344/348/330 311/380/362 310/124/122 345/341/323
f 281/121/119 345/341/323 310/124/122 93/122/120
f 214/358/340 203/360/342 363/331/315 362/274/262
f 115/376/358 104/378/360 361/104/104 360/248/238
f 203/360/342 192/362/344 359/180/174 363/331/315
f 159/368/350 148/370/352 358/188/182 357/291/278
f 280/347/329 269/346/328 356/232/223 355/134/131
f 170/366/348 159/368/350 357/291/278 354/266/254
f 225/356/338 214/358/340 362/274/262 353/160/156
f 181/364/346 170/366/348 354/266/254 352/181/175
f 126/374/356 115/376/358 360/248/238 351/141/138
f 269/346/328 258/350/332 350/206/199 356/232/223
f 247/352/334 236/354/336 349/159/155 348/207/200
f 258/350/332 247/352/334 348/207/200 350/206/199
f 148/370/352 137/372/354 347/140/137 358/188/182
f 192/362/344 181/364/346 352/181/175 359/180/174
f 236/354/336 225/356/338 353/160/156 349/159/155
f 137/372/354 126/374/356 351/141/138 347/140/137
f 92/379/361 280/347/329 355/134/131 346/105/105
f 104/378/360 92/379/361 346/105/105 361/104/104
